# xmcd CD database file
#
# Track frame offsets:
#	150
#	13131
#	29408
#	41168
#	56567
#	75365
#	85507
#	96052
#	118162
#	139196
#
# Disc length: 2238 seconds
#
# Revision: 0
# Processed by: cddbd v1.5.2PL0 Copyright (c) Steve Scherf et al.
# Submitted via: CDex 1.70beta2
#
DISCID=7908bc0a
DTITLE=Max Tavrichesky - That's How the Blues Found Me
DYEAR=2009
DGENRE=Blues
TTITLE0=Hesitation Blues (traditional)
TTITLE1=Down By The Riverside (traditional)
TTITLE2=Dniproboogie (Tavrichesky)
TTITLE3=Good Evening Lil' Schoolgirl (Williamson)
TTITLE4=Just A Dream (Broonzy)
TTITLE5=Bottle Up And Go (traditional)
TTITLE6=Ain't It Just like A Woman (Demetrius, Moore)
TTITLE7=Feels So Good To Be Back Home (Tavrichesky)
TTITLE8=Everyday I Have The Blues (Chatman)
TTITLE9=Bonus - I'll Play The Blues For You (Beach)
EXTD=YEAR: 2009
EXTT0=
EXTT1=
EXTT2=
EXTT3=
EXTT4=
EXTT5=
EXTT6=
EXTT7=
EXTT8=
EXTT9=
PLAYORDER=
